<?xml version="1.0" standalone="no"?>
<!DOCTYPE svg PUBLIC "-//W3C//DTD SVG 20010904//EN"
 "http://www.w3.org/TR/2001/REC-SVG-20010904/DTD/svg10.dtd">
<svg version="1.0" xmlns="http://www.w3.org/2000/svg"
 width="283.000000pt" height="283.000000pt" viewBox="0 0 283.000000 283.000000"
 preserveAspectRatio="xMidYMid meet">
<metadata>
Created by potrace 1.11, written by Peter Selinger 2001-2013
</metadata>
<g transform="translate(0.000000,283.000000) scale(0.100000,-0.100000)"
fill="#000000" stroke="none">
<path d="M1986 2784 c-55 -54 -56 -145 -3 -194 67 -63 153 49 112 146 -25 61
-75 83 -109 48z"/>
<path d="M1736 2488 c10 -136 40 -276 95 -443 16 -49 29 -95 29 -101 0 -6 -21
-19 -47 -29 -181 -67 -452 -246 -657 -435 -289 -265 -477 -523 -558 -765 -26
-78 -27 -187 -3 -239 33 -69 122 -107 232 -100 56 4 183 35 183 45 0 3 -25 9
-56 12 -77 8 -163 52 -189 97 -107 188 218 728 624 1033 240 181 468 287 616
287 73 0 114 -22 139 -75 31 -64 40 -255 17 -355 -18 -77 -12 -77 31 -5 77
132 115 232 124 330 15 152 -58 233 -212 237 -62 2 -64 3 -64 27 0 34 27 163
47 226 28 89 101 206 168 268 l30 27 -40 -14 c-22 -8 -74 -29 -115 -49 -127
-58 -185 -71 -249 -55 -42 11 -115 73 -126 108 -12 38 -23 20 -19 -32z"/>
<path d="M2474 2492 c2 -4 -28 -8 -66 -9 -39 -1 -74 -5 -77 -10 -3 -4 -13 -9
-21 -11 -16 -4 -75 -65 -91 -93 -7 -15 -4 -16 25 -9 19 4 39 10 45 14 6 4 11
2 11 -4 0 -6 5 -8 13 -3 29 18 171 -5 222 -37 52 -32 70 -53 93 -105 12 -29
27 -49 34 -47 10 3 11 1 1 -9 -7 -7 -13 -19 -13 -27 0 -8 5 -10 13 -6 10 6 10
4 0 -7 -15 -15 -18 -33 -5 -25 5 3 7 -5 6 -17 -1 -12 -3 -22 -4 -22 -1 0 -4
-31 -6 -70 -7 -94 -10 -117 -17 -135 -21 -58 -26 -80 -14 -73 7 4 6 -1 -2 -11
-19 -22 -51 -113 -43 -120 3 -3 -1 -6 -8 -6 -7 0 -11 -3 -7 -6 3 -3 -5 -25
-19 -49 -13 -24 -24 -50 -24 -59 0 -8 -3 -16 -7 -18 -5 -1 -21 -28 -37 -58
-16 -30 -34 -62 -40 -71 -6 -8 4 1 21 20 18 20 33 41 33 46 0 6 10 22 23 36
35 40 93 138 89 152 -1 4 2 7 7 7 14 0 103 166 105 195 0 12 4 21 7 19 4 -2
14 13 22 34 49 123 82 326 55 343 -7 5 -8 9 -2 9 8 0 8 11 1 39 -6 22 -15 37
-20 34 -6 -3 -7 -1 -3 6 13 21 -55 107 -75 95 -5 -3 -9 1 -9 9 0 16 -76 51
-91 42 -5 -4 -9 -1 -9 5 0 6 -5 8 -10 5 -6 -4 -7 -11 -4 -17 4 -7 2 -8 -5 -4
-6 4 -9 12 -5 17 4 7 -6 9 -25 6 -17 -3 -31 -2 -31 2 0 4 -9 7 -20 8 -11 1
-19 -1 -16 -5z m-149 -51 c3 -5 2 -12 -3 -15 -5 -3 -9 1 -9 9 0 17 3 19 12 6z
m385 -51 c0 -5 -2 -10 -4 -10 -3 0 -8 5 -11 10 -3 6 -1 10 4 10 6 0 11 -4 11
-10z m20 -125 c0 -2 -9 -3 -19 -2 -11 0 -18 5 -15 9 4 6 34 0 34 -7z m60 -129
c0 -3 -4 -8 -10 -11 -5 -3 -10 -1 -10 4 0 6 5 11 10 11 6 0 10 -2 10 -4z
m-106 -196 c-6 -6 -10 -3 -10 10 0 13 4 16 10 10 7 -7 7 -13 0 -20z m61 10 c3
-5 1 -10 -4 -10 -6 0 -11 5 -11 10 0 6 2 10 4 10 3 0 8 -4 11 -10z m-51 -38
c3 -5 -1 -9 -9 -9 -8 0 -12 4 -9 9 3 4 7 8 9 8 2 0 6 -4 9 -8z m46 2 c0 -8
-19 -13 -24 -6 -3 5 1 9 9 9 8 0 15 -2 15 -3z m-57 -39 c-3 -9 -8 -14 -10 -11
-3 3 -2 9 2 15 9 16 15 13 8 -4z m7 -29 c0 -2 -8 -10 -17 -17 -16 -13 -17 -12
-4 4 13 16 21 21 21 13z m-25 -76 c3 -5 1 -10 -4 -10 -6 0 -11 5 -11 10 0 6 2
10 4 10 3 0 8 -4 11 -10z"/>
<path d="M1092 2373 c-20 -8 -42 -59 -42 -98 0 -49 25 -93 57 -101 34 -9 54 4
76 49 40 81 -19 179 -91 150z"/>
<path d="M2171 2231 c-21 -4 -37 -13 -41 -26 -7 -19 -3 -20 104 -20 95 0 117
-4 153 -22 80 -43 114 -111 114 -228 0 -113 -40 -250 -113 -381 -32 -59 -38
-86 -9 -38 102 167 162 329 166 448 6 181 -75 267 -255 271 -47 1 -100 -1
-119 -4z"/>
<path d="M1721 2222 c0 -7 -5 -10 -11 -7 -5 3 -10 1 -10 -4 0 -6 -3 -10 -7
-10 -21 3 -26 -2 -13 -12 12 -8 11 -9 -6 -4 -13 3 -26 -1 -34 -10 -7 -8 -16
-15 -20 -15 -16 0 -119 -73 -114 -81 3 -5 -1 -7 -8 -4 -18 6 -61 -32 -52 -46
4 -7 3 -9 -4 -6 -15 10 -43 -3 -35 -16 4 -6 1 -7 -6 -3 -15 10 -53 -23 -44
-37 4 -6 1 -7 -6 -2 -7 4 -22 -1 -34 -13 -12 -11 -32 -25 -45 -31 -12 -7 -20
-16 -17 -22 4 -5 2 -9 -3 -9 -9 0 -46 -79 -40 -86 2 -1 21 13 42 32 21 19 42
34 47 34 5 0 9 7 9 16 0 8 4 13 8 10 5 -3 20 6 35 20 14 13 29 24 33 24 3 0
19 11 34 24 23 18 26 26 17 37 -10 11 -9 11 5 1 13 -11 28 -5 95 41 43 29 104
68 135 86 32 18 59 35 61 39 2 4 0 21 -4 37 -3 17 -7 24 -8 17z m-151 -126 c0
-3 -4 -8 -10 -11 -5 -3 -10 -1 -10 4 0 6 5 11 10 11 6 0 10 -2 10 -4z m-280
-206 c0 -5 -5 -10 -11 -10 -5 0 -7 5 -4 10 3 6 8 10 11 10 2 0 4 -4 4 -10z"/>
<path d="M859 2110 c-2 -54 2 -91 26 -200 9 -41 18 -84 20 -95 3 -11 25 -84
51 -162 l46 -143 -75 -77 c-248 -258 -438 -549 -509 -776 -17 -53 -23 -97 -23
-168 0 -89 2 -99 30 -145 42 -68 110 -104 204 -108 72 -3 206 15 219 29 4 5
-1 5 -10 2 -42 -15 -168 -19 -219 -7 -127 30 -182 106 -183 250 0 47 6 103 13
125 26 81 76 202 108 258 18 33 33 61 33 63 0 11 142 210 209 293 74 93 281
307 372 386 142 124 353 277 492 356 59 34 107 68 107 75 0 20 -5 18 -69 -18
-153 -87 -319 -203 -464 -326 -48 -41 -91 -71 -94 -68 -11 11 17 156 43 226
30 78 74 149 133 213 l44 47 -54 -24 c-30 -13 -85 -38 -123 -56 -122 -55 -202
-53 -264 8 -20 20 -42 46 -49 57 -11 18 -12 17 -14 -15z"/>
<path d="M910 1596 c0 -11 -3 -17 -6 -13 -8 8 -86 -72 -79 -82 2 -5 -3 -8 -13
-7 -9 0 -16 -4 -15 -11 2 -6 -6 -15 -17 -18 -11 -4 -20 -10 -20 -14 0 -4 -15
-23 -32 -42 -71 -76 -118 -131 -118 -135 0 -3 -9 -14 -20 -26 -10 -12 -17 -25
-14 -30 3 -5 1 -7 -4 -6 -10 3 -102 -105 -102 -120 0 -5 -9 -17 -20 -27 -11
-10 -20 -24 -20 -31 0 -7 -4 -14 -8 -16 -7 -3 -53 -72 -103 -156 -9 -15 -14
-30 -12 -34 2 -5 0 -8 -5 -8 -13 0 -55 -86 -48 -98 3 -6 1 -14 -5 -18 -8 -4
-9 -3 -5 4 4 7 4 12 -1 12 -4 0 -8 15 -8 34 0 19 4 32 8 29 5 -3 4 5 -3 17 -7
12 -8 20 -2 16 5 -3 13 13 17 37 13 73 15 77 32 110 9 18 16 35 15 40 -1 4 3
7 9 7 8 0 7 5 -1 15 -11 13 -10 14 3 9 17 -6 41 28 29 41 -4 5 -2 5 4 2 13 -8
47 26 37 37 -4 4 0 4 10 0 12 -4 17 -1 17 12 0 11 3 15 8 8 5 -7 15 -6 32 3
l25 13 -25 1 c-43 3 -90 -6 -99 -18 -3 -5 -13 -9 -21 -11 -8 -2 -17 -8 -18
-13 -2 -5 -7 -7 -12 -4 -10 6 -61 -15 -56 -24 4 -6 -14 -9 -79 -10 -58 -1 -75
1 -70 10 7 10 -20 30 -29 21 -4 -4 -6 -2 -5 3 2 6 -7 30 -19 55 l-22 45 6
-100 c3 -61 10 -102 17 -107 9 -6 9 -8 0 -8 -8 0 -7 -14 4 -52 16 -59 32 -118
36 -133 15 -55 40 -114 48 -110 5 4 6 -1 3 -9 -3 -8 5 -43 18 -78 12 -35 22
-66 20 -70 -1 -5 3 -8 10 -8 6 0 3 -7 -8 -15 -10 -8 -15 -15 -11 -15 4 0 3
-10 -4 -21 -9 -17 -8 -20 3 -13 10 6 11 5 1 -7 -11 -14 -17 -77 -14 -167 1
-30 5 -41 13 -36 7 4 8 3 4 -4 -18 -30 56 -137 119 -169 59 -31 225 -55 225
-33 0 6 5 10 11 10 5 0 7 -4 4 -10 -7 -11 8 -14 18 -4 3 3 29 7 57 9 28 2 57
9 64 14 7 6 16 8 19 5 3 -3 12 -2 19 2 7 5 24 10 37 12 14 2 31 11 39 20 7 9
10 11 6 3 -5 -10 -3 -12 7 -5 8 5 19 9 24 9 23 1 85 27 85 36 0 6 4 7 10 4 5
-3 26 4 47 15 27 15 31 19 13 15 -14 -3 -53 -12 -88 -20 -35 -7 -70 -19 -79
-27 -14 -11 -15 -11 -9 0 6 11 1 13 -20 10 -16 -1 -32 -10 -36 -18 -6 -13 -7
-13 -7 0 -1 12 -17 15 -80 15 -44 0 -77 4 -74 8 3 5 -1 7 -8 6 -36 -7 -172 62
-192 97 -5 8 -13 12 -18 8 -5 -3 -8 0 -7 8 2 7 -3 12 -10 10 -8 -1 -11 2 -7 8
4 6 0 22 -9 35 -9 13 -16 31 -16 40 0 8 -4 15 -9 15 -10 0 -8 155 3 189 5 15
4 21 -2 17 -5 -3 -1 11 10 32 10 20 17 47 15 59 -2 12 -1 20 3 18 10 -6 22 24
14 36 -3 5 0 9 7 9 7 0 9 8 6 21 -3 12 -3 18 0 15 4 -3 19 20 35 51 15 31 26
58 23 61 -3 3 4 12 16 20 13 9 19 21 16 33 -3 11 -2 17 2 14 5 -2 36 38 70 89
60 92 71 113 52 101 -5 -3 -12 -1 -16 4 -3 6 6 8 21 5 21 -4 25 -2 21 11 -4 8
-1 15 6 15 16 0 40 38 32 50 -3 6 1 7 9 4 9 -3 16 -2 16 4 0 5 14 25 30 43 63
69 89 106 82 113 -4 4 0 6 8 4 8 -2 14 3 13 10 -2 6 3 11 10 10 6 -2 11 3 10
10 -2 6 4 12 12 12 8 0 15 4 15 8 0 4 20 28 45 53 44 44 54 70 35 99 -8 13
-10 12 -10 -4z m-85 -126 c3 -5 1 -10 -4 -10 -6 0 -11 5 -11 10 0 6 2 10 4 10
3 0 8 -4 11 -10z m-101 -130 c-6 -6 -10 -3 -10 10 0 13 4 16 10 10 7 -7 7 -13
0 -20z m-199 -259 c3 -5 2 -12 -3 -15 -5 -3 -9 1 -9 9 0 17 3 19 12 6z m-40
-21 c-10 -11 -22 -20 -28 -20 -5 0 1 9 14 20 31 25 37 25 14 0z m-80 -138 c-3
-3 -11 0 -18 7 -9 10 -8 11 6 5 10 -3 15 -9 12 -12z m-297 -117 c-3 -3 -9 2
-12 12 -6 14 -5 15 5 6 7 -7 10 -15 7 -18z m180 -260 c-3 -3 -9 2 -12 12 -6
14 -5 15 5 6 7 -7 10 -15 7 -18z m12 -189 c0 -2 -8 -10 -17 -17 -16 -13 -17
-12 -4 4 13 16 21 21 21 13z m111 -163 c13 -16 12 -17 -3 -4 -17 13 -22 21
-14 21 2 0 10 -8 17 -17z m34 -2 c3 -5 2 -12 -3 -15 -5 -3 -9 1 -9 9 0 17 3
19 12 6z m-155 -25 c0 -2 -8 -10 -17 -17 -16 -13 -17 -12 -4 4 13 16 21 21 21
13z m41 -13 c13 -16 12 -17 -3 -4 -10 7 -18 15 -18 17 0 8 8 3 21 -13z m275
-49 c1 -9 0 -13 -4 -10 -3 4 -7 14 -8 22 -1 9 0 13 4 10 3 -4 7 -14 8 -22z
m38 8 c3 -5 -1 -9 -9 -9 -8 0 -12 4 -9 9 3 4 7 8 9 8 2 0 6 -4 9 -8z"/>
<path d="M2319 1433 c-13 -16 -12 -17 4 -4 9 7 17 15 17 17 0 8 -8 3 -21 -13z"/>
<path d="M199 1313 c-27 -7 -58 -91 -42 -116 4 -7 8 -18 9 -25 4 -24 26 -42
52 -42 28 0 65 37 58 57 -3 7 0 13 6 13 9 0 9 3 0 12 -7 7 -12 17 -12 23 0 5
5 3 10 -5 8 -11 9 -7 4 15 -6 28 -46 76 -62 74 -4 -1 -14 -3 -23 -6z m5 -21
c3 -5 -1 -9 -9 -9 -8 0 -12 4 -9 9 3 4 7 8 9 8 2 0 6 -4 9 -8z m-17 -47 c0 -8
-4 -12 -9 -9 -5 3 -6 10 -3 15 9 13 12 11 12 -6z"/>
<path d="M1010 200 c-9 -6 -10 -10 -3 -10 6 0 15 5 18 10 8 12 4 12 -15 0z"/>
</g>
</svg>
