<?xml version="1.0" standalone="no"?>
<!DOCTYPE svg PUBLIC "-//W3C//DTD SVG 20010904//EN"
 "http://www.w3.org/TR/2001/REC-SVG-20010904/DTD/svg10.dtd">
<svg version="1.0" xmlns="http://www.w3.org/2000/svg"
 width="283.000000pt" height="283.000000pt" viewBox="0 0 283.000000 283.000000"
 preserveAspectRatio="xMidYMid meet">
<metadata>
Created by potrace 1.11, written by Peter Selinger 2001-2013
</metadata>
<g transform="translate(0.000000,283.000000) scale(0.100000,-0.100000)"
fill="#000000" stroke="none">
<path d="M1079 2354 c-19 -21 -24 -36 -24 -80 0 -45 4 -58 27 -80 31 -31 69
-28 92 9 28 43 24 120 -9 152 -31 32 -55 32 -86 -1z"/>
<path d="M2791 2264 c0 -11 3 -14 6 -6 3 7 2 16 -1 19 -3 4 -6 -2 -5 -13z"/>
<path d="M2215 2236 c-5 -3 -27 -7 -47 -11 -27 -4 -38 -11 -38 -23 0 -15 10
-17 86 -13 105 4 160 -10 213 -55 106 -91 101 -282 -14 -531 -19 -40 -32 -73
-29 -73 10 0 98 190 125 272 25 73 31 108 31 179 0 80 -3 94 -29 141 -41 72
-108 107 -214 113 -41 3 -78 3 -84 1z"/>
<path d="M2801 2164 c0 -11 3 -14 6 -6 3 7 2 16 -1 19 -3 4 -6 -2 -5 -13z"/>
<path d="M2651 2154 c0 -11 3 -14 6 -6 3 7 2 16 -1 19 -3 4 -6 -2 -5 -13z"/>
<path d="M860 2094 c0 -50 22 -187 40 -249 4 -16 30 -99 56 -183 l48 -153 -60
-62 c-252 -260 -438 -537 -515 -767 -25 -75 -32 -113 -33 -180 -1 -101 12
-145 60 -193 51 -51 108 -67 223 -66 l96 2 -86 7 c-142 11 -213 59 -244 162
-20 69 -19 129 4 221 54 207 188 433 418 699 209 242 534 512 788 656 124 70
121 69 112 78 -20 21 -312 -167 -505 -325 -67 -56 -124 -101 -125 -101 -7 0
13 128 28 183 25 96 87 205 157 276 18 19 26 32 18 29 -8 -4 -62 -28 -120 -54
-105 -48 -180 -64 -234 -50 -32 8 -84 52 -107 91 l-19 30 0 -51z"/>
<path d="M2791 2114 c0 -11 3 -14 6 -6 3 7 2 16 -1 19 -3 4 -6 -2 -5 -13z"/>
<path d="M2663 2055 c0 -22 2 -30 4 -17 2 12 2 30 0 40 -3 9 -5 -1 -4 -23z"/>
<path d="M2031 2044 c0 -11 3 -14 6 -6 3 7 2 16 -1 19 -3 4 -6 -2 -5 -13z"/>
<path d="M2652 1940 c0 -14 2 -19 5 -12 2 6 2 18 0 25 -3 6 -5 1 -5 -13z"/>
<path d="M2365 1509 c-4 -6 -5 -12 -2 -15 2 -3 7 2 10 11 7 17 1 20 -8 4z"/>
<path d="M2171 1444 c0 -11 3 -14 6 -6 3 7 2 16 -1 19 -3 4 -6 -2 -5 -13z"/>
<path d="M24 1166 c-3 -8 -4 -29 -2 -48 3 -29 4 -27 8 15 5 48 3 58 -6 33z"/>
<path d="M32 1040 c0 -14 2 -19 5 -12 2 6 2 18 0 25 -3 6 -5 1 -5 -13z"/>
<path d="M231 784 c0 -11 3 -14 6 -6 3 7 2 16 -1 19 -3 4 -6 -2 -5 -13z"/>
<path d="M256 743 c-6 -14 -5 -15 5 -6 7 7 10 15 7 18 -3 3 -9 -2 -12 -12z"/>
<path d="M583 580 c0 -30 2 -43 4 -27 2 15 2 39 0 55 -2 15 -4 2 -4 -28z"/>
<path d="M283 470 c0 -25 2 -35 4 -22 2 12 2 32 0 45 -2 12 -4 2 -4 -23z"/>
<path d="M153 350 c0 -36 2 -50 4 -32 2 17 2 47 0 65 -2 17 -4 3 -4 -33z"/>
<path d="M788 253 c7 -3 16 -2 19 1 4 3 -2 6 -13 5 -11 0 -14 -3 -6 -6z"/>
</g>
</svg>
